# xmcd CD database file
# Copyright (C) 1993-1997  Ti Kan
#
# Track frame offsets:
#	192
#	11040
#	25800
#	38330
#	54202
#	74585
#	89215
#	102225
#	119655
#	136670
#	149892
#	162697
#	182432
#
# Disc length: 2598 seconds
#
# Revision: 1
# Processed by: cddbd v1.4b41PL1 Copyright (c) Steve Scherf et al.
# Submitted via: xmcd 2.1 PL2
#
DISCID=ba0a240d
DTITLE=Doc Watson - My Dear Old Southern Home
DYEAR=1900
DGENRE=
TTITLE0=My Dear Old Southern Home
TTITLE1=The Ship That Never Returned
TTITLE2=Your Lone Journey
TTITLE3=My Friend Jim
TTITLE4=No Telephone In Heaven
TTITLE5=Dream Of The Miner's Child
TTITLE6=Wreck Of The Number Nine
TTITLE7=Grandfather's Clock
TTITLE8=Don't Say Goodbye If You Love Me
TTITLE9=Sleep Baby Sleep
TTITLE10=Signal Light
TTITLE11=That Silver Haired Daddy Of Mine
TTITLE12=Life Is Like A River
EXTD=
EXTT0=
EXTT1=
EXTT2=
EXTT3=
EXTT4=
EXTT5=
EXTT6=
EXTT7=
EXTT8=
EXTT9=
EXTT10=
EXTT11=
EXTT12=
PLAYORDER=
